<svg xmlns="http://www.w3.org/2000/svg" viewBox="0 0 595.276 841.89"><path fill="#cb604b" d="M107.889 212.349c.422.73.836 1.469 1.252 2.208 1.633 2.908 3.321 5.914 5.55 8.605l.13.147c.79.821 1.806 1.235 2.826 1.235.936 0 1.874-.349 2.641-1.053 1.602-1.471 1.731-3.811.301-5.442-.771-.881-1.427-1.937-2.12-3.055a62 62 0 0 0-.716-1.138 200 200 0 0 1-5.003-8.914c-10.672-20.971-19.344-43.015-27.308-63.79-.776-2.04-2.893-3.031-4.932-2.313-2.029.718-3.097 2.871-2.394 5.008a878 878 0 0 0 20.522 49.872c3.363 7.43 6.296 13.339 9.251 18.63m35.077-11.523c.585 6.392 1.358 11.679 2.431 16.635l.032.132c.179.659.338 1.336.497 2.018.567 2.412 1.209 5.146 2.793 7.499l.189.248a3.83 3.83 0 0 0 2.93 1.331c.967 0 1.916-.36 2.663-1.034 1.482-1.39 1.638-3.155.465-5.245q-.06-.104-.116-.21c-1.5-3.95-2.246-8.314-2.969-12.537l-.014-.075c-2.217-16.188-2.548-32.88-2.869-49.022-.07-3.488-.139-6.975-.226-10.459.025-2.157-1.56-3.84-3.721-3.933a3.86 3.86 0 0 0-4.076 3.669l-.005.095.037 2.032c.297 16.011.604 32.567 1.96 48.856Zm29.513 26.491.231.028q.207.015.42.016c1.747 0 3.715-.889 4.069-4.727.023-.249.057-.625.092-.747l.076-.305c.383-2.074.942-4.118 1.48-6.082 2.437-8.726 6.015-17.669 11.585-28.965a508 508 0 0 1 15.949-29.005c1.115-1.875.571-4.159-1.266-5.315-1.838-1.158-4.131-.663-5.388 1.234-3.033 4.984-5.853 10.112-8.341 14.636-7.2 12.985-14.503 27.118-19.238 42.527-1.286 4.306-2.39 8.21-2.868 12.304-.303 2.083 1.133 4.057 3.199 4.401m333.648 367.932c-8.807-11.694-6.342-8.79-13.834-18.681-17.414-22.99-35.064-45.75-87.934-105.299-9.014-10.153-18.171-20.202-26.788-30.696-1.045-2.1-2.588-4.03-5.038-4.727-5.027-1.497-8.933 1.692-9.964 5.756a9.4 9.4 0 0 0-1.041 1.283c-3.213 4.948-6.645 9.759-10.137 14.522a498 498 0 0 0-9.216-5.414c-6.953-4.016-14.144-8.168-21.496-12.153-7.328-3.963-14.429-7.915-20.752-12.685-14.689-11.143-21.172-20.608-25.682-37.476-2.253-8.903-4.531-16.823-9.592-23.551-5.991-8.241-14.497-15.13-24.611-19.93-2.269-1.063-4.618-2.007-6.89-2.92-5.964-2.397-11.598-4.662-15.945-8.91-5.45-5.42-9.172-13.078-11.369-23.365-.984-5.07-1.527-10.355-2.052-15.464-.55-5.355-1.118-10.893-2.187-16.274-2.041-11.493-8.517-20.601-17.325-24.365-5.161-2.204-11.212-2.171-16.188.085-3.926 1.78-6.911 4.819-8.553 8.643a41 41 0 0 0-4.026-2.011c-8.309-4.055-17.446-1.574-23.455 6.331-5.403-1.559-11.72-.563-17.198 2.859-11.201 6.848-15.965 19.158-20.227 32.204-2.959 8.632-5.088 18.291-6.704 30.408-1.216 9.418-1.956 19.516-2.261 30.869-.363 12.716.254 22.361 1.999 31.271 2.082 10.69 6.023 21.753 12.044 33.811 6.266 12.674 20.594 35.034 46.146 42.379 7.278 2.1 14.814 2.959 22.102 3.79 1.962.223 3.923.447 5.844.688l.821.115c15.923 2.22 32.388 4.517 47.806 9.291 24.629 8.317 46.879 21.653 66.967 36.167-2.581 1.694-5.418 3.458-7.628 5.459-3.723 1.408-6.519 5.441-4.875 10.155 1.8 4.567 5.937 7.708 9.458 10.945 9.268 8.015 19.567 14.681 29.671 21.57 17.142 11.501 33.264 24.448 48.637 38.212 39.219 35.113 46.842 55.965 92.032 88.541a346 346 0 0 0 3.895 2.769 257 257 0 0 1 27.258-19.667c34-21.301 50.922-20.763 53.481-32.434 1.664-7.59-4.669-11.571-35.194-52.101ZM219.675 476.637c-13.977-3.632-28.314-5.868-41.75-7.746-2.51-.327-5.025-.619-7.54-.911-5.247-.61-10.674-1.241-15.953-2.193-35.191-6.024-50.962-42.565-57.225-63.79-2.904-10.14-4.142-21.562-3.786-34.948.147-9.618.739-19.279 1.758-28.689 1.066-8.999 2.783-20.787 6.63-32.173l.152-.459c3.287-9.946 6.685-20.232 14.645-26.628 2.878-2.362 7.223-4.441 11.458-4-1.615 3.824-2.725 7.859-3.809 11.812l-.533 1.935q-.511 1.919-1.031 3.837c-1.758 6.505-3.575 13.232-4.592 20.11-1.121 7.944-1.906 15.097-2.402 21.865-1.416 19.007-1.735 34.746-1.004 49.534l.014.166c.028.254.063.75.11 1.413.836 11.637 1.997 16.026 4.602 17.391.522.273 1.08.409 1.643.409.643 0 1.291-.178 1.894-.533 1.364-.801 2.725-2.4 1.459-5.47-.061-.149-.133-.296-.175-.466a51 51 0 0 1-1.214-6.85c-1.814-19.858-.624-40.044.63-57.357.617-6.744 1.387-14.578 2.702-22.167.932-5.083 2.31-10.208 3.642-15.163l.442-1.646c.261-.947.526-1.956.803-3.007 3.599-13.683 7.453-24.869 18.199-23.168 3.684 1.085 6.933 2.775 9.658 4.998.222.387.5.739.851 1.033.039.032.094.071.141.107-2.5 1.619-4.596 3.916-6.115 6.827-5.457 9.307-7.526 19.976-9.326 30.996-1.751 10.553-3.035 21.82-3.927 34.462-.723 11.318-1.166 23.441.482 35.428.91 6.342 2.329 13.682 6.009 20.13l.142.231c.39.64.924 1.516 1.99 2.238 1.804 1.11 4.07.625 5.269-1.129 1.086-1.589.886-3.613-.417-4.924-2.272-3.531-3.352-7.767-4.408-12.429-3.619-19.562-1.434-39.928.679-59.624l.033-.306c.529-4.555 1.281-9.591 2.368-15.858 1.383-8.181 3.101-16.824 7.532-24.735 2.024-3.894 4.385-5.729 7.891-6.135 3.048-.347 5.461.351 7.38 2.142 5.776 5.389 5.634 18.852 5.455 22.812-.435 7.275-2.26 14.549-4.025 21.584-1.755 6.994-3.57 14.225-4.12 21.712-.697 11.455-.032 27.827 13.731 37.704 4.74 3.435 10.28 5.169 16.033 6.79 10.614 2.908 16.919 5.518 24.009 12.453 5.436 5.521 9.65 13.343 12.51 23.199.645 2.402 1.182 5.098 1.591 7.973l.154 1.25c.227 2.023 1.904 3.517 3.881 3.517q.144 0 .291-.012a3.93 3.93 0 0 0 2.723-1.416 3.8 3.8 0 0 0 .871-2.862c-.75-6.806-2.468-13.328-5.068-19.295-6.442-16.416-19.009-27.332-36.343-31.575a187 187 0 0 0-3.122-.924c-3.821-1.108-7.43-2.154-10.721-4.027-6.569-3.538-11.3-10.896-12.35-19.216-.657-4.996-.707-10.532-.147-15.968.649-5.444 1.976-10.659 3.38-16.181.63-2.474 1.281-5.032 1.86-7.601 1.532-6.944 3.129-15.032 2.676-23.13-.993-19.921-9.478-25.488-16.502-26.661a20.3 20.3 0 0 0-3.951-.147 41 41 0 0 0-2.273-2.495 7 7 0 0 1 1.446-3.594l.093-.128c2.837-4.14 8.936-4.621 13.187-2.992 3.709 1.511 7.005 4.514 9.305 8.495 2.899 4.813 3.873 10.521 4.765 16.943.418 3.028.741 6.193 1.053 9.254.825 8.104 1.679 16.483 4.405 24.371 4.166 12.516 11.6 21.357 22.109 26.283 2.304 1.067 4.671 2.005 6.959 2.911 3.598 1.425 6.996 2.771 10.256 4.615 12.033 6.455 20.606 16.02 24.12 26.877.605 2.027 1.176 4.074 1.748 6.124 2.184 7.824 4.442 15.914 8.688 23.236 10.172 17.386 27.85 27.798 45.046 36.95 9.959 5.524 18.973 10.693 27.343 15.678-14.67 19.745-31.688 37.763-50.916 53.129-19.344-14.134-45.944-31.154-76.146-40.199Z"/></svg>