<svg xmlns="http://www.w3.org/2000/svg" viewBox="0 0 429.455 444.526"><path fill="#eddecc" d="M426.364 155.235c6.966 21.978-6 46.693-6.154 68.566-.159 22.669 12.203 47.596 5.175 68.65-7.099 21.265-32.039 33.774-45.333 51.826-13.162 17.873-17.661 45.445-36.099 58.633-17.791 12.725-45.181 8.266-67.159 15.232s-41.8 26.388-63.673 26.234c-22.669-.159-42.229-20.107-63.283-27.135-21.265-7.099-48.858-2.959-66.91-16.252-17.873-13.162-22.125-40.659-35.313-59.097-12.725-17.791-37.56-30.525-44.526-52.502-6.966-21.979 6-46.694 6.154-68.567.159-22.669-12.203-47.596-5.175-68.65 7.099-21.265 32.039-33.774 45.333-51.826C62.563 82.474 67.062 54.902 85.5 41.714c17.791-12.725 45.181-8.266 67.159-15.232C174.639 19.516 194.461.093 216.333.247c22.669.159 42.229 20.107 63.283 27.135 21.265 7.099 48.858 2.959 66.91 16.252 17.873 13.162 22.125 40.659 35.313 59.097 12.725 17.791 37.56 30.525 44.526 52.503Z"/><path fill="#fff" d="M190.223 202.457q1.234-1.349 2.808-.788 1.571.563 1.572 2.472-.001 5.619-6.346 11.626-6.346 6.01-16.455 6.01-12.582 0-20.387-7.863-7.808-7.86-7.808-20.556 0-12.323 8.366-20.096c5.661-5.26 16.843-8.339 24.507-7.343q6.78.882 10.992 4.3 5.671 4.607 5.672 10.335 0 4.156-3.819 6.627l-20.33 13.255q4.38 5.616 11.233 5.616 6.401 0 9.997-3.594Zm-20.555-30.779q-2.698.001-4.325 2.696-1.63 2.697-1.629 6.403 0 7.639 2.022 13.367l7.189-5.279q2.919-2.134 2.92-6.177 0-1.459-.224-3.089-.228-1.627-.843-3.539-.618-1.908-1.967-3.146-1.349-1.235-3.144-1.236Z"/><path fill="#fff" d="M259.402 166.737q2.807 0 2.808 2.358v.45q0 1.912-2.696 5.167-2.695 3.258-3.706 5.504l-17.522 37.653c-.797 2.344-8.373 23.893-22.559 29.823-5.052 2.112-9.821 2.009-9.821 2.009-.757-.016-7.957-.274-14.067-5.378-1.499-1.252-3.897-3.299-4.863-6.682a11 11 0 0 1-.416-3.034q0-4.044 2.415-6.46 2.414-2.415 6.572-2.415c4.158 0 4.923.843 6.458 2.528q2.302 2.526 2.808 5.56c.455 2.742.083 4.2 1.348 5.559.999 1.073 2.394 1.272 2.721 1.319 4.669.665 11.214-6.586 12.972-14.342l.025-.114c.967-4.386.184-8.978-1.889-12.963l-17.2-33.065q-1.123-2.133-3.819-5.447t-2.696-5.224v-.45q.002-2.358 2.808-2.358h26.735q1.234 0 1.965.674.73.675.731 1.798v.448q0 1.239-1.012 2.865-1.011 1.63-1.348 2.977-.337 1.348.898 5.055l8.564 20.685c.527 1.273 2.331 1.268 2.852-.007l7.568-18.544q1.347-4.38.112-6.234-1.236-1.854-3.425-3.707-2.191-1.85-2.191-3.089v-.448q0-2.471 2.808-2.472h16.062ZM61.94 220.897q-2.786 0-2.785-2.339v-.446q-.001-1.446 2.284-4.508 2.282-3.06 2.284-6.067v-52.323q-.002-3.006-2.284-6.067-2.285-3.061-2.284-4.512v-.442q-.001-2.34 2.785-2.339h27.051q2.786 0 2.785 2.339v.442q0 1.45-2.507 4.512-2.502 3.06-2.503 6.067v21.15h25.384l.111-21.15q-.001-3.006-2.228-6.067c-2.227-3.061-2.228-3.545-2.228-4.512v-.442q0-2.34 2.674-2.339h27.055q2.781 0 2.781 2.339v.442q0 1.45-2.562 4.512-2.56 3.06-2.558 6.067v52.323q-.001 3.007 2.558 6.067c2.559 3.06 2.562 3.545 2.562 4.508v.446q0 2.34-2.781 2.339h-27.055q-2.673 0-2.674-2.339v-.446q.001-1.446 2.228-4.508 2.227-3.06 2.228-6.067l-.111-21.596H86.766l-.111 21.596q-.001 3.007 2.558 6.067 2.561 3.063 2.562 4.508v.446q.001 2.34-2.785 2.339zm48.49 90.259q-2.794 0-2.793-2.346v-.447q-.001-1.45 2.29-4.52c1.524-2.047 2.29-4.073 2.29-6.084V245.29c0-2.011-.766-4.038-2.29-6.084q-2.291-3.07-2.29-4.524v-.443q0-2.346 2.793-2.346h53.809c1.341 0 2.306.299 2.905.894.594.594 1.001 1.564 1.225 2.901l2.681 14.961q.221 1.563-.67 2.51-.891.95-2.454.95h-.67q-2.346 0-4.692-2.119a26.5 26.5 0 0 1-4.073-4.636q-1.731-2.508-4.409-4.632-2.681-2.119-5.47-2.119h-7.592q-5.582 0-5.582 5.805v23.22h10.493q2.345.001 4.241-2.458a75 75 0 0 0 3.463-4.855c1.041-1.6 2.011-2.402 2.901-2.402h1.117c1.564 0 2.346.934 2.346 2.793v21.768q0 2.794-2.346 2.793h-1.117q-1.337.002-2.901-2.234a72 72 0 0 0-3.463-4.52c-1.265-1.524-2.677-2.29-4.241-2.29h-10.493v19.538q0 3.016 2.565 6.084 2.569 3.072 2.569 4.52v.447q0 2.346-2.793 2.346H110.43Zm104.047-18.086q1.226-1.34 2.793-.782 1.56.561 1.56 2.458 0 5.582-6.308 11.554-6.306 5.973-16.354 5.973-12.501 0-20.264-7.816-7.756-7.81-7.756-20.431-.001-12.166 8.203-19.869c5.47-5.139 11.965-7.704 19.482-7.704q10.269-.001 15.911 4.576c3.754 3.052 5.637 6.475 5.637 10.269 0 2.757-1.269 4.951-3.798 6.587l-20.204 13.174q4.352 5.582 11.163 5.582 6.362.001 9.934-3.571Zm-20.431-30.589c-1.783 0-3.22.894-4.297 2.677q-1.62 2.682-1.62 6.364 0 7.595 2.011 13.286l7.146-5.246q2.902-2.118 2.901-6.14.002-1.45-.223-3.068c-.148-1.081-.427-2.25-.834-3.519q-.615-1.897-1.955-3.124c-1.34-1.227-1.935-1.229-3.128-1.229Zm86.744 35.277q-.001 3.016 2.29 6.084 2.286 3.072 2.286 4.52v.447q0 2.346-2.789 2.346h-17.75q-3.017.002-3.24-2.905c-3.276 2.681-7.477 4.022-12.615 4.022q-10.826 0-18.644-7.313c-5.211-4.875-7.812-11.738-7.812-20.599q-.001-12.167 7.868-20.036 7.875-7.874 18.588-7.872 6.252 0 10.273 2.346v-12.615q0-1.897-1.005-3.351c-.67-.966-1.38-1.732-2.123-2.286a14.5 14.5 0 0 1-2.119-1.955q-1.005-1.114-1.005-2.234v-.335q0-2.453 2.789-3.236l19.649-5.805q5.357-1.563 5.358 2.901zm-26.791 8.598q2.34.112 3.794-1.899 1.45-2.011 1.452-5.47V275.99c0-3.499-.878-6.643-2.625-9.436-1.747-2.789-3.667-4.185-5.749-4.185q-6.141 0-6.699 11.61-.222 4.243.614 11.442a61.6 61.6 0 0 0 3.292 13.956q2.458 6.756 5.921 6.978Zm81.382-13.286q1.226-1.34 2.793-.782 1.56.561 1.56 2.458 0 5.582-6.308 11.554-6.306 5.973-16.354 5.973-12.501 0-20.264-7.816-7.756-7.81-7.756-20.431-.001-12.166 8.203-19.869c5.47-5.139 11.965-7.704 19.482-7.704q10.269-.001 15.911 4.576c3.754 3.052 5.637 6.475 5.637 10.269 0 2.757-1.269 4.951-3.798 6.587l-20.204 13.174q4.352 5.582 11.163 5.582 6.362.001 9.934-3.571Zm-20.431-30.589c-1.783 0-3.22.894-4.297 2.677q-1.62 2.682-1.62 6.364 0 7.595 2.011 13.286l7.146-5.246q2.902-2.118 2.901-6.14.002-1.45-.223-3.068c-.148-1.081-.427-2.25-.834-3.519q-.615-1.897-1.955-3.124c-1.34-1.227-1.935-1.229-3.128-1.229Zm38.057 18.798a222 222 0 0 1-5.198-25.865q-1.811-12.958-1.81-20.727-.001-5.133 5.71-7.287 5.705-2.15 11.417-.057c3.804 1.392 5.71 3.804 5.71 7.226q0 22.818-7.011 46.71-.678 2.27-4.463 2.27c-3.785 0-3.977-.757-4.354-2.27Zm4.174 30.05c0-2.169 1.629-3.887 3.714-4.188-.082-.331-.203-.648-.203-1.004a4.31 4.31 0 0 1 4.309-4.309c.017 0 .03.009.047.01.263-2.104 1.975-3.749 4.142-3.781-.388-2.583-1.404-4.641-3.072-6.154q-3.266-2.949-8.307-2.949c-5.041 0-6.131.983-8.304 2.949q-3.265 2.955-3.265 8.634c0 5.679 1.088 6.663 3.265 8.63 2.065 1.873 4.688 2.824 7.827 2.917-.047-.254-.152-.486-.152-.753ZM209.102 147.486c.476-1.046 1.235-2.378 2.107-3.695 1.414-2.134 2.642-3.245 4.126-3.855 1.647-.673 3.54-.554 5.559.782 2.237 1.481 3.124 3.304 3.24 4.943.128 1.843-.664 3.943-2.105 6.119-.947 1.428-1.681 2.333-2.143 2.845l-10.783-7.139Zm10.615 2.745c.136-.135.317-.408.45-.61 1.305-1.916 1.204-4.038-1.275-5.679-2.149-1.422-4.018-.796-5.203.993-.309.466-.463.779-.528.957l6.555 4.34Zm8.04-11.226c.581.507 1.712.101 2.669-.714.701-.598 1.297-1.235 1.795-2.018l1.871 1.502c-.596 1.111-1.47 2.048-2.385 2.829-2.612 2.226-5.297 2.06-7.271-.259-1.455-1.709-2.215-4.853.518-7.182 2.398-2.044 4.902-1.179 6.615.831.379.447.664.886.771 1.104zm.631-3.673c-.362-.425-1.22-1.029-2.072-.303-.803.684-.495 1.681-.141 2.188zm6.397-.955c.653.04 1.953-.199 2.734-.608.667-.349.857-.637.692-.953-.164-.312-.434-.348-1.512-.153-2.206.398-3.389-.281-3.894-1.28-.889-1.699-.065-3.703 2.2-4.888 1.066-.558 2.142-.822 2.821-.858l.611 2.386c-.516.016-1.464.163-2.16.528-.541.282-.786.593-.609.931.147.282.51.313 1.709.104 1.991-.341 3.095.191 3.752 1.414.851 1.625.204 3.52-2.456 4.911-1.203.63-2.407.934-3.268.944l-.621-2.479Zm8.53-4.121c.631.172 1.953.206 2.8-.035.724-.205.971-.447.874-.79-.095-.339-.353-.429-1.448-.46-2.241-.063-3.26-.969-3.549-2.051-.522-1.845.696-3.637 3.155-4.333 1.159-.327 2.265-.366 2.937-.261l.109 2.459c-.509-.09-1.466-.14-2.223.075-.586.165-.891.419-.787.786.087.306.436.411 1.651.454 2.019.075 2.992.822 3.383 2.154.499 1.765-.522 3.487-3.411 4.303-1.307.369-2.548.42-3.393.252zm11.969-3.1c.15.756 1.294 1.127 2.551 1.067.92-.044 1.782-.183 2.654-.499l.565 2.331c-1.152.516-2.416.723-3.618.78-3.429.165-5.454-1.607-5.601-4.65-.109-2.241 1.211-5.191 4.798-5.363 3.147-.152 4.604 2.064 4.732 4.7.028.586-.017 1.107-.064 1.344l-6.017.289Zm2.743-2.52c-.025-.556-.338-1.559-1.456-1.506-1.054.051-1.417 1.027-1.447 1.646zm6.008-.173c.228-1.514.34-2.422.405-3.223l3.016.456-.131 1.736.078.011c.731-1.364 2.025-1.668 2.858-1.542.313.047.454.074.695.164l-.495 3.275a4 4 0 0 0-.885-.233c-1.044-.158-1.809.167-2.111.907a3 3 0 0 0-.139.588l-.711 4.701-3.534-.534.952-6.307Zm15.256-2.319-.952 2.563 1.899.705-.899 2.42-1.898-.705-.962 2.591c-.397 1.072-.312 1.61.501 1.912.338.125.62.194.82.225l-.931 2.508c-.435-.009-1.224-.172-2.085-.492-.984-.365-1.679-1.014-1.984-1.67-.352-.757-.312-1.748.198-3.124l1.174-3.163-1.129-.419.899-2.421 1.129.419.682-1.839zm-1.016 12.767a53 53 0 0 0 1.74-2.495l5.973-9.052 2.98 1.966-2.885 4.376.033.022c.862-.292 1.926-.159 2.976.534 1.926 1.271 2.314 3.777.658 6.234-1.911 2.898-4.73 3.123-6.614 1.879-.856-.565-1.563-1.464-1.508-2.734l-.033-.022-.801.953-2.518-1.662Zm5.348-1.478a2.4 2.4 0 0 0-.227.424c-.221.598-.058 1.349.541 1.745.868.572 1.862.297 2.702-.976.722-1.094.813-2.205-.186-2.865-.567-.374-1.344-.277-1.821.223-.107.11-.214.244-.301.375zm8.121 12.5.507-.703-.047-.052c-1.026.006-1.887-.528-2.586-1.313-1.323-1.487-1.082-3.35.117-4.415 1.93-1.714 4.349-.724 6.553 1.749l.065-.059c.297-.263.414-.772-.448-1.741-.684-.769-1.675-1.34-2.363-1.576l1.255-1.95c.659.248 1.991.928 3.328 2.434 2.233 2.509 1.62 4.595-.174 6.19l-2.431 2.159c-.715.637-1.349 1.272-1.646 1.674zm3.016-3.223c-.97-1.085-1.813-1.436-2.442-.878-.46.409-.423.921-.023 1.372.339.381.972.555 1.478.322a2 2 0 0 0 .399-.295zm5.676 4.21c1.334-.748 2.12-1.216 2.792-1.654l1.491 2.661-1.451.961.038.069c1.527-.257 2.56.577 2.971 1.311.154.277.22.404.297.651l-2.887 1.616a4.2 4.2 0 0 0-.36-.842c-.516-.921-1.241-1.326-2.011-1.11a3 3 0 0 0-.549.25l-4.145 2.32-1.747-3.12zm1.197 22.428c.206-.29.422-.576.666-.841-.624-.652-1.302-1.751-1.561-3.355-.56-3.472 1.155-5.149 2.917-5.434 1.699-.274 3.102.477 4.113 1.89l.067-.011c.442-.608 1.33-1.218 2.262-1.369 1.679-.271 3.765.811 4.226 3.662.355 2.205-.609 4.052-2.55 4.366-1.298.21-2.563-.379-3.692-1.947l-.085-.002c-.541.694-1.193 1.442-1.632 2.07.859.383 2.091.59 3.071.592l.505 3.124c-2.007-.037-3.828-.46-5.373-1.504-.758.915-1.537 1.859-2.279 2.817zm2.338-2.781c.644-.952 1.522-2.017 2.369-3.097-.438-.406-.938-.621-1.561-.521-.941.152-1.669 1.013-1.466 2.274.1.616.38 1.093.658 1.344m6.967-3.239c-.546.088-1.022.411-1.532 1.126.722.691 1.212.938 1.81.841.532-.086 1.063-.503.959-1.153-.103-.636-.697-.901-1.237-.814m-11.231 25.19c-.123-.548-.126-1.841.241-3.4 1.144-4.865 4.636-6.299 8.053-5.495 4.527 1.065 6.034 4.967 5.122 8.844-.351 1.496-.913 2.646-1.335 3.116l-2.543-1.315a6.4 6.4 0 0 0 1.027-2.299c.47-2.002-.288-4.007-2.916-4.624-2.326-.548-4.104.52-4.667 2.907-.197.844-.258 1.827-.18 2.415l-2.802-.15Zm-3.554 6.133.836.229.032-.061c-.365-.962-.164-1.954.328-2.882.931-1.759 2.763-2.185 4.18-1.435 2.281 1.207 2.196 3.819.647 6.75l.079.041c.349.185.866.117 1.475-1.029.482-.911.67-2.038.653-2.766l2.265.494c-.002.705-.174 2.189-1.119 3.969-1.573 2.968-3.743 3.125-5.863 2.002l-2.873-1.522c-.847-.448-1.663-.818-2.143-.955l1.502-2.836Zm4.074 1.697c.677-1.288.713-2.2-.031-2.594-.543-.287-1.011-.075-1.293.459-.239.45-.181 1.103.213 1.497.107.101.264.191.415.27zm-7.111 2.976 5.402 4.515.808-.965 1.981 1.656-.808.965.249.207c.821.687 1.574 1.806 1.616 2.998.049 1.099-.468 2.107-1.06 2.813a7.3 7.3 0 0 1-1.186 1.151l-2.024-1.788c.217-.161.435-.359.664-.633.502-.6.362-1.278-.171-1.724l-.365-.304-1.14 1.364-1.981-1.655 1.122-1.341-5.402-4.516 2.296-2.742Zm-4.26 9.608c-.564-.526-1.709-.158-2.693.626-.721.574-1.338 1.191-1.861 1.958l-1.82-1.564c.633-1.091 1.536-1.999 2.478-2.749 2.686-2.139 5.365-1.884 7.26.499 1.399 1.756 2.051 4.924-.759 7.161-2.464 1.963-4.941 1.016-6.585-1.05-.365-.459-.633-.908-.733-1.129l4.713-3.753Zm-.755 3.651c.349.436 1.187 1.069 2.062.371.826-.657.551-1.663.213-2.182l-2.274 1.811Zm3.157 7.507v-3.889l1.895-1.509.574 3.432z"/></svg>